<?xml version="1.0" standalone="no"?>
<!DOCTYPE svg PUBLIC "-//W3C//DTD SVG 20010904//EN"
 "http://www.w3.org/TR/2001/REC-SVG-20010904/DTD/svg10.dtd">
<svg version="1.0" xmlns="http://www.w3.org/2000/svg"
 width="260.000000pt" height="260.000000pt" viewBox="0 0 260.000000 260.000000"
 preserveAspectRatio="xMidYMid meet">
<metadata>
Created by potrace 1.11, written by Peter Selinger 2001-2013
</metadata>
<g transform="translate(0.000000,260.000000) scale(0.100000,-0.100000)"
fill="#000000" stroke="none">
<path d="M693 2409 c-18 -5 -47 -24 -65 -42 -20 -18 -153 -239 -311 -514
l-277 -482 0 -73 1 -73 283 -490 c248 -430 288 -494 325 -520 l43 -30 598 0
598 0 43 30 c37 26 77 90 328 525 l286 495 0 65 0 65 -286 495 c-251 434 -291
499 -328 525 l-43 30 -581 2 c-340 1 -595 -2 -614 -8z m1371 -478 c5 -7 -48
-66 -391 -435 -61 -66 -110 -122 -108 -125 2 -2 21 -7 42 -11 84 -17 149 -32
407 -94 147 -36 271 -67 273 -70 8 -8 -87 -65 -127 -76 -54 -15 -139 -12 -226
9 -43 11 -113 27 -154 35 -41 9 -135 30 -209 47 l-134 30 -46 -44 c-25 -24
-64 -59 -86 -78 -21 -19 -60 -53 -84 -75 l-45 -42 37 -15 c42 -18 77 -68 77
-113 0 -16 -13 -51 -29 -76 -68 -107 -265 -143 -341 -63 -17 18 -25 40 -28 79
-6 78 16 108 143 196 113 78 187 151 229 226 34 61 33 68 -6 44 -18 -11 -39
-20 -45 -20 -22 0 -14 20 12 32 33 15 32 21 -12 42 -70 34 -137 47 -278 53
-162 6 -212 22 -245 75 -48 79 -10 167 94 217 92 45 194 35 253 -24 27 -27 33
-41 33 -74 0 -23 -7 -56 -16 -73 -20 -38 -13 -43 69 -52 34 -3 107 -13 161
-22 l99 -17 106 109 c58 60 152 157 207 214 139 144 144 148 210 175 58 24
148 33 158 16z m-1769 -526 c0 -5 -19 -11 -42 -13 -36 -3 -42 -1 -37 13 5 12
17 15 43 13 20 -2 36 -7 36 -13z m-155 -14 c0 -12 -69 -35 -78 -26 -4 4 2 13
12 21 22 16 66 19 66 5z m279 3 c18 -4 31 -13 31 -21 0 -11 -8 -13 -32 -8 -40
9 -48 13 -48 26 0 11 7 11 49 3z m175 -65 c20 -17 -6 -27 -34 -12 -40 19 -42
48 -2 31 15 -7 31 -15 36 -19z m135 -97 c3 -1 0 -7 -6 -13 -8 -8 -19 -5 -38
14 -37 33 -23 58 14 25 14 -13 28 -24 30 -26z m396 8 c4 -6 -9 -17 -29 -25
-44 -18 -46 -18 -46 -1 0 8 12 19 28 24 36 14 40 14 47 2z m-155 -45 c0 -11
-11 -15 -40 -15 -22 0 -40 4 -40 9 0 8 18 14 68 20 6 0 12 -6 12 -14z m-161
-19 c-2 -2 -21 -6 -41 -10 -30 -5 -38 -4 -38 8 0 9 12 16 33 18 29 3 57 -6 46
-16z m-159 -16 c0 -11 -60 -31 -71 -24 -18 11 -8 24 24 32 33 9 47 7 47 -8z
m134 -32 c9 -37 7 -60 -6 -56 -13 5 -29 63 -20 73 11 10 20 4 26 -17z m-279
-17 c6 -11 -42 -51 -61 -51 -21 0 -17 12 14 37 30 25 38 27 47 14z m-91 -153
c8 -40 -10 -62 -22 -28 -10 26 -5 60 8 60 4 0 10 -14 14 -32z m366 22 c0 -5
-5 -21 -12 -35 -13 -29 -45 -36 -33 -7 4 9 10 25 12 35 6 18 33 24 33 7z
m-242 -149 c5 -14 -20 -14 -53 1 -25 11 -30 19 -19 31 8 8 67 -18 72 -32z
m138 3 c-22 -16 -56 -19 -56 -5 0 6 12 16 28 24 34 17 56 2 28 -19z"/>
<path d="M835 1628 c-121 -43 -96 -176 32 -170 95 4 153 80 105 138 -34 43
-77 53 -137 32z"/>
<path d="M1040 932 c-38 -26 -59 -54 -66 -90 -5 -27 -2 -38 17 -59 22 -22 30
-24 82 -21 48 4 63 9 88 34 17 17 32 45 35 65 12 72 -88 117 -156 71z"/>
</g>
</svg>
